<?xml version="1.0" encoding="UTF-8"?>
<svg width="154px" height="47px" viewBox="0 0 154 47" version="1.1" xmlns="http://www.w3.org/2000/svg" xmlns:xlink="http://www.w3.org/1999/xlink">
    <!-- Generator: sketchtool 49.2 (51160) - http://www.bohemiancoding.com/sketch -->
    <title>75C5EEBC-F228-43E3-A47A-5E7A9BD90D31</title>
    <desc>Created with sketchtool.</desc>
    <defs>
        <filter x="-7.7%" y="-20.0%" width="115.5%" height="162.9%" filterUnits="objectBoundingBox" id="filter-1">
            <feOffset dx="0" dy="4" in="SourceAlpha" result="shadowOffsetOuter1"></feOffset>
            <feGaussianBlur stdDeviation="3" in="shadowOffsetOuter1" result="shadowBlurOuter1"></feGaussianBlur>
            <feColorMatrix values="0 0 0 0 0   0 0 0 0 0   0 0 0 0 0  0 0 0 0.472316576 0" type="matrix" in="shadowBlurOuter1" result="shadowMatrixOuter1"></feColorMatrix>
            <feMerge>
                <feMergeNode in="shadowMatrixOuter1"></feMergeNode>
                <feMergeNode in="SourceGraphic"></feMergeNode>
            </feMerge>
        </filter>
    </defs>
    <g id="STATS-Future-Design" stroke="none" stroke-width="1" fill="none" fill-rule="evenodd">
        <g id="Home-Future" transform="translate(-80.000000, -16.000000)" fill="#FFFFFF" fill-rule="nonzero">
            <g id="STATS-logo-whte-small" filter="url(#filter-1)" transform="translate(86.000000, 18.000000)">
                <polygon id="Shape" points="28 1 30.063745 6.27 39.0438247 6.27 39.0438247 35 44.9003984 35 44.9003984 6.27 53.936255 6.27 56 1"></polygon>
                <polygon id="Shape" points="85 1 87.063745 6.27 96.0438247 6.27 96.0438247 35 101.900398 35 101.900398 6.27 110.936255 6.27 113 1"></polygon>
                <path d="M6.13100437,9.48387097 C6.13100437,7 8.40174672,5.25 11.8646288,5.25 C15.4978166,5.19354839 18.9606987,6.5483871 21.628821,9.03225806 L23.7860262,3.55645161 C20.8340611,1.24193548 16.9737991,0 12.4323144,0 C4.93886463,0 0,4.29032258 0,9.93548387 C0,22.3548387 19.8122271,17.9516129 19.8122271,25.0645161 C19.8122271,27.3225806 17.9388646,29.6935484 13,29.6935484 C8.96943231,29.6935484 5.10917031,28 2.38427948,25.1209677 L0.170305677,30.766129 C3.1790393,33.3064516 7.3231441,35 12.8296943,35 C21.9694323,35 26,30.1451613 26,24.5 C25.9432314,11.9112903 6.13100437,15.8064516 6.13100437,9.48387097 Z" id="Shape"></path>
                <path d="M122.14442,9.48387097 C122.14442,7 124.420131,5.25 127.890591,5.25 C131.531729,5.19354839 135.002188,6.5483871 137.676149,9.03225806 L139.838074,3.55645161 C136.87965,1.24193548 133.010941,0 128.459519,0 C120.949672,0 116,4.29032258 116,9.93548387 C116,22.3548387 135.85558,17.9516129 135.85558,25.0645161 C135.85558,27.3225806 133.978118,29.6935484 129.028446,29.6935484 C124.989059,29.6935484 121.12035,28 118.389497,25.1209677 L116.170678,30.766129 C119.185996,33.3064516 123.339168,35 128.800875,35 C137.960613,35 142,30.1451613 142,24.5 C141.943107,11.9112903 122.14442,15.8064516 122.14442,9.48387097 Z" id="Shape"></path>
                <path d="M71.6932007,1 L64.3067993,1 L51,35 L57.7661692,35 L60.2470978,28.4266667 L75.7529022,28.4266667 L78.2338308,35 L85,35 L71.6932007,1 Z M65.3217247,23.2133333 L62.7844113,23.2133333 L62.7844113,15.7333333 L65.3217247,15.7333333 L65.3217247,23.2133333 Z M68.9303483,23.2133333 L66.3930348,23.2133333 L66.3930348,7.46 L68.9303483,7.46 L68.9303483,23.2133333 Z M72.4825871,23.2133333 L69.9452736,23.2133333 L69.9452736,12.73 L72.4825871,12.73 L72.4825871,23.2133333 Z" id="Shape"></path>
            </g>
        </g>
    </g>
</svg>