<?xml version="1.0" encoding="UTF-8"?>
<svg width="458px" height="146px" viewBox="0 0 458 146" version="1.1" xmlns="http://www.w3.org/2000/svg" xmlns:xlink="http://www.w3.org/1999/xlink">
    <!-- Generator: sketchtool 49.2 (51160) - http://www.bohemiancoding.com/sketch -->
    <title>832A789B-320E-4D24-8408-8C4CD1127C81</title>
    <desc>Created with sketchtool.</desc>
    <defs></defs>
    <g id="STATS-Future-Design" stroke="none" stroke-width="1" fill="none" fill-rule="evenodd">
        <g id="Home-Future" transform="translate(-556.000000, -258.000000)" fill-rule="nonzero">
            <g id="STATS-logo-color-large" transform="translate(556.000000, 258.000000)">
                <polygon id="Shape" fill="#112E51" points="90 2 96.6137516 18.8275504 125.862198 18.8275504 125.862198 111 144.955054 111 144.955054 18.8275504 174.386248 18.8275504 181 2"></polygon>
                <polygon id="Shape" fill="#112E51" points="272 2 278.614384 18.8275504 307.865627 18.8275504 307.865627 111 326.96031 111 326.96031 18.8275504 356.394319 18.8275504 363 2"></polygon>
                <path d="M20.599643,30.6736744 C20.599643,22.6471634 27.7893742,17.0224919 38.900777,17.0224919 C50.4840442,16.8466198 61.680477,21.1978186 70.1172827,29.1539651 L77.0107098,11.5550317 C67.4766905,4.13116401 55.2236455,0 40.6960311,0 C16.6779714,0 1,13.9219354 1,32.0973102 C1,72.2298655 64.3916422,58.0371773 64.3916422,80.9114237 C64.3916422,88.2828876 58.352268,95.9251043 42.6045779,95.9251043 C29.6977863,95.892221 17.3773441,90.5196224 8.55575388,81.077369 L1.35730785,99.3488174 C10.9871903,107.471402 24.2772995,113 41.7766695,113 C71.0323394,113 84,97.2788684 84,79.0947596 C84.0087148,38.5604421 20.599643,51.1460813 20.599643,30.6736744 Z" id="Shape" fill="#112E51"></path>
                <path d="M393.583683,30.6784168 C393.583683,22.6506648 400.77307,17.0251237 411.861787,17.0251237 C423.425146,16.8500937 434.601752,21.2021623 443.021602,29.1584725 L449.915059,11.5568182 C440.393037,4.13180272 428.155411,0 413.646078,0 C389.666946,0 374,13.9240878 374,32.1022727 C374,72.2410328 437.320575,58.0461503 437.320575,80.9239332 C437.320575,88.2965368 431.280096,95.9399351 415.621854,95.9399351 C402.731304,95.9070467 390.426366,90.5336174 381.615877,81.0899041 L374.478712,99.3467069 C384.052957,107.470547 397.352454,113 414.829803,113 C444.048658,113 457,97.2764378 457,79.0895176 C456.904258,38.5664038 393.583683,51.1539889 393.583683,30.6784168 Z" id="Shape" fill="#112E51"></path>
                <polygon id="Shape" fill="#112E51" points="230.989256 2 207.019499 2 164 111 185.842419 111 193.879029 89.9164401 244.120971 89.9164401 252.166335 111 274 111"></polygon>
                <rect id="Rectangle-path" fill="#00A6D2" x="202" y="49" width="8" height="24"></rect>
                <rect id="Rectangle-path" fill="#05C605" x="213" y="23" width="8" height="51"></rect>
                <rect id="Rectangle-path" fill="#FDB81E" x="225" y="40" width="8" height="34"></rect>
                <path d="M3.40328959,140.598528 C3.45283495,141.195982 3.67578518,141.768523 4.0472079,142.252123 C4.82908194,142.970337 5.89882181,143.330909 6.98061354,143.24087 C7.67990282,143.263443 8.37821513,143.174127 9.04651813,142.976636 C9.94771732,142.775438 10.578106,142.000428 10.5579375,141.118473 C10.5758498,140.605809 10.2885427,140.127437 9.81564278,139.882538 C9.08074677,139.516837 8.29001358,139.263709 7.47249559,139.132454 L5.68383361,138.748888 C4.38615858,138.550033 3.13384889,138.140651 1.98130332,137.538525 C0.814542805,136.74254 0.167227665,135.424673 0.273131127,134.060861 C0.245290161,132.685193 0.85757408,131.368293 1.94553008,130.463866 C3.33499316,129.419925 5.081028,128.903687 6.84646389,129.014839 C8.49522639,128.969672 10.1137584,129.442932 11.4522685,130.361582 C12.7369349,131.285385 13.4786679,132.740457 13.4466266,134.273953 L10.0660555,134.273953 C10.0610356,133.396036 9.53427026,132.59672 8.70667235,132.211221 C8.04966279,131.919094 7.32957589,131.778914 6.60499453,131.802085 C5.82435723,131.76602 5.049857,131.949818 4.37811036,132.330553 C3.84184367,132.635665 3.52034512,133.193077 3.53743924,133.788103 C3.52123175,134.336422 3.84300327,134.8431 4.36022375,135.083703 C5.08003662,135.384636 5.8330033,135.607647 6.60499453,135.748551 L9.5652301,136.413398 C10.6164372,136.598897 11.6136804,136.997099 12.4896924,137.581143 C13.5146974,138.381365 14.0737149,139.602338 13.9921685,140.862762 C14.0194895,142.281727 13.3597358,143.633642 12.2035065,144.527947 C10.7616676,145.577753 8.97024669,146.095412 7.15947974,145.985497 C5.28907033,146.084397 3.4386503,145.576649 1.90975684,144.544994 C0.643536077,143.599748 -0.0659102892,142.129976 0.00483183042,140.598528 L3.40328959,140.598528 Z" id="Shape" fill="#112E51"></path>
                <path d="M23.7897506,138.625561 C24.4482349,137.763198 25.2712772,137.041345 26.210756,136.502209 L26.5616264,136.290755 C26.0972866,135.798316 25.7071959,135.240273 25.4037542,134.634364 C25.1446944,134.083319 25.0099124,133.481636 25.009025,132.872245 C24.9584406,131.783975 25.4117977,130.733385 26.2370713,130.026424 C27.1443729,129.317577 28.2728033,128.95538 29.4212198,129.004396 C30.5006747,128.964557 31.5546581,129.339496 32.3685308,130.052856 C33.1284762,130.716499 33.5558557,131.684781 33.5351747,132.696033 C33.5757177,133.548599 33.3284472,134.389936 32.833434,135.083704 C32.2762094,135.786175 31.5879367,136.372749 30.8071577,136.81058 L33.1843044,139.709264 C33.4568606,139.317308 33.6697221,138.88673 33.815871,138.431728 C33.9682072,137.96237 34.0451922,137.471648 34.0439367,136.977981 L36.8859866,136.977981 C36.8259554,138.035246 36.5794416,139.073398 36.1579306,140.044067 C35.8563521,140.736564 35.4639988,141.385479 34.9912867,141.973586 L38,145.577118 L34.105339,145.577118 L32.9562386,144.167423 C32.4895368,144.620586 31.9643909,145.008781 31.3948655,145.321611 C30.4662303,145.784033 29.439945,146.013778 28.4036957,145.991216 C26.9298713,146.076613 25.488096,145.536351 24.430089,144.502226 C23.5285386,143.640238 23.0127706,142.448402 23.0002923,141.198254 C22.9897286,140.278957 23.2657752,139.379374 23.7897506,138.625561 Z M26.9124967,142.607949 C27.3769979,143.071626 28.0124567,143.320552 28.6668485,143.295175 C29.1942807,143.299382 29.7149076,143.17545 30.1843628,142.933941 C30.6113547,142.728304 31.0023737,142.454569 31.342235,142.123366 L28.17563,138.334812 C27.5525117,138.699967 27.0046701,139.181451 26.5616264,139.753317 C26.3079083,140.153368 26.1739433,140.618205 26.175669,141.092527 C26.1912416,141.671451 26.4415625,142.218866 26.8686379,142.607949 L26.9124967,142.607949 Z M28.3247499,133.700441 C28.5959407,134.103789 28.8887649,134.492028 29.2019258,134.863439 C29.5667429,134.634593 29.9050754,134.365684 30.2106781,134.061675 C30.5705967,133.715753 30.7788643,133.240322 30.7896142,132.740086 C30.7812689,132.413715 30.6567922,132.101146 30.4387438,131.859027 C30.1641792,131.569656 29.7739715,131.420656 29.377361,131.45374 C29.0857239,131.453678 28.7999657,131.536121 28.5528156,131.691626 C28.168621,131.919811 27.9448001,132.345591 27.9738796,132.79295 C27.9869753,133.11885 28.0935925,133.433998 28.2808911,133.700441 L28.3247499,133.700441 Z" id="Shape" fill="#112E51"></path>
                <polygon id="Shape" fill="#112E51" points="60 129 60 132.009009 55.2015707 132.009009 55.2015707 146 51.7984293 146 51.7984293 132.009009 47 132.009009 47 129"></polygon>
                <path d="M74.0257415,129 L78.0279799,129 L84,146 L80.1768327,146 L79.0576385,142.504505 L72.8349189,142.504505 L71.688864,146 L68,146 L74.0257415,129 Z M73.7929491,139.576577 L78.1264689,139.576577 L75.9865697,132.882883 L73.7929491,139.576577 Z" id="Shape" fill="#112E51"></path>
                <polygon id="Shape" fill="#112E51" points="87 129 90.5091503 129 96.8816993 140.855856 96.8816993 129 100 129 100 146 96.6522876 146 90.1267974 133.90991 90.1267974 145.972973 87 145.972973"></polygon>
                <path d="M109.03132,129 L113.022371,129 L119,146 L115.170022,146 L114.060403,142.504505 L107.841163,142.504505 L106.695749,146 L103,146 L109.03132,129 Z M108.798658,139.576577 L113.120805,139.576577 L110.991051,132.882883 L108.798658,139.576577 Z" id="Shape" fill="#112E51"></path>
                <polygon id="Shape" fill="#112E51" points="121 129 124.536275 129 124.536275 142.121019 133 142.121019 133 145 121 145"></polygon>
                <polygon id="Shape" fill="#112E51" points="144.033353 129 148 129 142.362716 139.621622 142.362716 146 138.83383 146 138.83383 139.621622 133 129 137.154258 129 140.656343 136.405405"></polygon>
                <polygon id="Shape" fill="#112E51" points="162 129 162 132.009009 157.196207 132.009009 157.196207 146 153.795291 146 153.795291 132.009009 149 132.009009 149 129"></polygon>
                <polygon id="Shape" fill="#112E51" points="168 146 165 146 165 129 168 129"></polygon>
                <path d="M173.387614,131.00982 C174.758757,129.668885 176.65807,128.940739 178.620221,129.003778 C181.453045,129.003778 183.525037,129.899179 184.836196,131.68998 C185.511461,132.577459 185.914445,133.626844 186,134.720567 L182.445436,134.720567 C182.280617,134.077378 181.972954,133.475479 181.543263,132.955594 C180.744219,132.211015 179.647099,131.832117 178.533798,131.916255 C177.420496,132.000393 176.399544,132.539364 175.733265,133.394685 C174.924199,134.664089 174.540221,136.138849 174.632614,137.622009 C174.522015,139.073279 174.928991,140.517587 175.787396,141.720188 C176.490673,142.592559 177.584274,143.096827 178.737503,143.080508 C179.810594,143.143999 180.849467,142.707647 181.525219,141.9096 C181.954843,141.344885 182.2616,140.703775 182.427393,140.024093 L185.963913,140.024093 C185.716039,141.669444 184.892585,143.186505 183.627284,144.328903 C182.309651,145.46071 180.581082,146.056917 178.809677,145.99056 C176.646322,146.098673 174.54649,145.273719 173.089897,143.743449 C171.62262,141.994481 170.883702,139.790075 171.014898,137.553132 C171.020912,134.723436 171.811818,132.542333 173.387614,131.00982 Z" id="Shape" fill="#112E51"></path>
                <path d="M194.025741,129 L198.019026,129 L204,146 L200.176833,146 L199.057639,142.504505 L192.834919,142.504505 L191.688864,146 L188,146 L194.025741,129 Z M193.792949,139.576577 L198.126469,139.576577 L195.98657,132.882883 L193.792949,139.576577 Z" id="Shape" fill="#112E51"></path>
                <polygon id="Shape" fill="#112E51" points="207 129 210.576751 129 210.576751 142.121019 219 142.121019 219 145 207 145"></polygon>
                <polygon id="Shape" fill="#112E51" points="240 129 240 132.009009 235.183607 132.009009 235.183607 146 231.77377 146 231.77377 132.009009 227 132.009009 227 129"></polygon>
                <path d="M253.144068,129.410108 C253.725641,129.674482 254.239767,130.081962 254.644068,130.598961 C254.979452,131.029968 255.250943,131.512876 255.449153,132.030987 C255.655509,132.605732 255.756199,133.217213 255.745763,133.832278 C255.738497,134.665723 255.54073,135.484803 255.169492,136.218989 C254.764042,137.013127 254.082942,137.607716 253.271186,137.876177 C253.923964,138.117585 254.477946,138.591769 254.838983,139.218139 C255.19249,140.051068 255.349568,140.96304 255.29661,141.875043 L255.29661,143.018863 C255.283983,143.545823 255.312328,144.072992 255.381356,144.594993 C255.45031,144.996986 255.674721,145.349827 256,145.56769 L256,145.990994 L252.313559,145.990994 C252.211864,145.612722 252.144068,145.306503 252.09322,145.090348 C252.00908,144.605947 251.96372,144.114839 251.957627,143.622296 L251.957627,142.046166 C252.03621,141.278852 251.849455,140.507359 251.432203,139.87561 C250.88339,139.446564 250.202382,139.253564 249.525424,139.335223 L246.262712,139.335223 L246.262712,146 L243,146 L243,129.004818 L250.627119,129.004818 C251.482552,128.971741 252.336249,129.109207 253.144068,129.410108 Z M246.237288,131.92291 L246.237288,136.489183 L249.830508,136.489183 C250.379151,136.520718 250.927869,136.428641 251.440678,136.218989 C252.101003,135.850827 252.478701,135.087443 252.389831,134.300614 C252.486109,133.480325 252.12998,132.674301 251.474576,132.229129 C250.987476,131.998873 250.456143,131.89396 249.923729,131.92291 L246.237288,131.92291 Z" id="Shape" fill="#112E51"></path>
                <path d="M265.059119,129 L269.039041,129 L275,146 L271.180703,146 L270.074177,142.504505 L263.827663,142.504505 L262.685443,146 L259,146 L265.059119,129 Z M264.827105,139.576577 L269.1372,139.576577 L267.013385,132.882883 L264.827105,139.576577 Z" id="Shape" fill="#112E51"></path>
                <path d="M279.356041,131.005838 C280.733053,129.667145 282.638668,128.940596 284.607035,129.003806 C287.444921,129.003806 289.51459,129.863047 290.834117,131.684638 C291.510588,132.570344 291.914292,133.617631 292,134.709167 L288.484274,134.709167 C288.311388,134.06996 288.003928,133.470732 287.580489,132.947723 C286.778416,132.204301 285.677939,131.826068 284.561253,131.910012 C283.444566,131.993956 282.420288,132.531914 281.751072,133.385936 C280.943719,134.653762 280.562225,136.125509 280.657492,137.60481 C280.528668,139.063046 280.930695,140.519094 281.796262,141.729168 C282.494189,142.602818 283.588873,143.107221 284.742602,143.086769 C285.820175,143.15007 286.863601,142.71487 287.544337,141.918201 C287.974517,141.354498 288.281802,140.714711 288.448123,140.036463 L291.990962,140.036463 C291.746096,141.679576 290.920614,143.194628 289.650158,144.332669 C288.330171,145.462214 286.598513,146.057228 284.823943,145.991004 C282.659823,146.096281 280.560133,145.273202 279.102981,143.748385 C277.626007,142.006105 276.882023,139.804544 277.015236,137.570441 C276.988123,134.71776 277.783454,132.535287 279.356041,131.005838 Z" id="Shape" fill="#112E51"></path>
                <polygon id="Shape" fill="#112E51" points="295 129 298.491302 129 298.491302 136 305.059988 129 309.640072 129 302.675465 135.990991 310 146 305.437912 146 300.20096 138.576577 298.491302 140.315315 298.491302 146 295 146"></polygon>
                <polygon id="Shape" fill="#112E51" points="315 146 312 146 312 129 315 129"></polygon>
                <polygon id="Shape" fill="#112E51" points="320 129 323.50915 129 329.881699 140.855856 329.881699 129 333 129 333 146 329.652288 146 323.118301 133.90991 323.118301 145.972973 320 145.972973"></polygon>
                <path d="M347.62569,134.451635 C347.422453,133.416306 346.720434,132.548199 345.750121,132.13233 C345.16472,131.886905 344.535023,131.764548 343.900246,131.772881 C342.659905,131.742713 341.474951,132.285836 340.688656,133.244912 C339.764095,134.52694 339.32136,136.093626 339.438277,137.669563 C339.438277,139.655093 339.889327,141.058657 340.791427,141.880256 C341.625796,142.671918 342.732567,143.113095 343.883117,143.112654 C344.903942,143.153289 345.902035,142.804504 346.675059,142.137006 C347.409953,141.465782 347.883265,140.556196 348.011081,139.56951 L344.268508,139.56951 L344.268508,136.873639 L351,136.873639 L351,145.543217 L348.764734,145.543217 L348.422164,143.523454 C347.936465,144.146185 347.358929,144.691579 346.709316,145.140976 C345.714067,145.726321 344.575184,146.0227 343.420648,145.996808 C341.424349,146.057695 339.500841,145.245066 338.153641,143.771645 C336.660258,142.097345 335.890536,139.900539 336.012581,137.661005 C335.89854,135.363799 336.674531,133.110996 338.179334,131.37064 C339.64394,129.78319 341.73284,128.919416 343.891682,129.008543 C345.674513,128.923492 347.429385,129.475682 348.841812,130.566158 C350.044004,131.532773 350.81389,132.936074 350.982872,134.468751 L347.62569,134.451635 Z" id="Shape" fill="#112E51"></path>
                <path d="M365.329326,140.599216 C365.378843,141.196601 365.601663,141.769074 365.97287,142.252617 C366.771138,142.989758 367.870891,143.351788 368.976075,143.241249 C369.674958,143.263819 370.372864,143.174514 371.040779,142.977046 C371.939502,142.772978 372.568051,141.999871 372.551319,141.1191 C372.565077,140.607485 372.279088,140.131087 371.809456,139.883311 C371.074988,139.517653 370.284714,139.264554 369.467671,139.133315 L367.680049,138.749794 C366.381469,138.542975 365.129805,138.124965 363.979672,137.514004 C362.813589,136.718113 362.166651,135.4004 362.272493,134.036749 C362.24093,132.660526 362.853529,131.342337 363.943919,130.440176 C365.336378,129.405484 367.081029,128.898522 368.842004,129.016887 C370.490079,128.969809 372.108301,129.443198 373.445131,130.363472 C374.731255,131.286273 375.475721,132.740862 375.447267,134.275384 L372.059723,134.275384 C372.054707,133.397569 371.528247,132.598348 370.701131,132.212894 C370.044186,131.921717 369.32475,131.781598 368.600675,131.803805 C367.817593,131.767068 367.040482,131.950834 366.366147,132.332212 C365.835026,132.640717 365.517847,133.196811 365.534903,133.789591 C365.518705,134.337845 365.840289,134.844464 366.357209,135.085039 C367.076039,135.387376 367.828742,135.610412 368.600675,135.749809 L371.559189,136.414578 C372.607634,136.59813 373.601799,136.996504 374.473013,137.582186 C375.506523,138.37703 376.072701,139.59966 375.992492,140.86342 C376.015784,142.281405 375.35719,143.631571 374.20487,144.528174 C372.760379,145.577751 370.96728,146.095218 369.154838,145.985553 C367.288285,146.084525 365.441737,145.576739 363.917105,144.54522 C362.649464,143.60097 361.937265,142.131707 362.004349,140.599216 L365.329326,140.599216 Z" id="Shape" fill="#112E51"></path>
                <polygon id="Shape" fill="#112E51" points="388.004172 129 392 129 386.359356 139.621622 386.359356 146 382.837306 146 382.837306 139.621622 377 129 381.156734 129 384.651967 136.405405"></polygon>
                <path d="M397.331743,140.598963 C397.381288,141.196334 397.604239,141.768795 397.975661,142.252327 C398.774394,142.989452 399.874786,143.351474 400.980614,143.240937 C401.679903,143.263507 402.378215,143.174204 403.046518,142.97674 C403.947717,142.77557 404.578106,142.000668 404.557937,141.118835 C404.571703,140.607231 404.285548,140.130844 403.815643,139.883073 C403.080747,139.517422 402.290014,139.26433 401.472496,139.133093 L399.683834,138.74958 C398.384498,138.542766 397.132106,138.124766 395.981303,137.513818 C394.814543,136.717944 394.167228,135.40026 394.273131,134.036639 C394.24529,132.661162 394.857574,131.344445 395.94553,130.440144 C397.338799,129.405475 399.084465,128.898524 400.846464,129.016887 C402.498261,128.96984 404.120249,129.443126 405.461212,130.363442 C406.745878,131.287117 407.487611,132.741986 407.45557,134.275269 L404.066055,134.275269 C404.061036,133.397473 403.53427,132.598269 402.706672,132.212824 C402.049346,131.921653 401.329491,131.781537 400.604995,131.803744 C399.824357,131.767684 399.049857,131.951457 398.37811,132.332139 C397.841844,132.637208 397.520345,133.194543 397.537439,133.789486 C397.521232,134.337728 397.843003,134.844336 398.360224,135.084906 C399.080037,135.385797 399.833003,135.608777 400.604995,135.749661 L403.56523,136.414416 C404.616437,136.599889 405.61368,136.998035 406.489692,137.581998 C407.514697,138.382108 408.073715,139.602911 407.992168,140.86316 C408.019489,142.281927 407.359736,143.633654 406.203507,144.527835 C404.758921,145.578778 402.964221,146.096394 401.150536,145.985182 C399.282898,146.084151 397.435275,145.576376 395.909757,144.54488 C394.643536,143.599765 393.93409,142.130197 394.004832,140.598963 L397.331743,140.598963 Z" id="Shape" fill="#112E51"></path>
                <polygon id="Shape" fill="#112E51" points="423 129 423 132.009009 418.214099 132.009009 418.214099 146 414.819843 146 414.819843 132.009009 410 132.009009 410 129"></polygon>
                <polygon id="Shape" fill="#112E51" points="438.6 131.836518 429.509091 131.836518 429.509091 135.233546 437.836364 135.233546 437.836364 138.010616 429.509091 138.010616 429.509091 142.121019 439 142.121019 439 145 426 145 426 129 438.581818 129"></polygon>
                <path d="M453.04533,129 L458,129 L458,146 L454.793009,146 L454.793009,134.495495 C454.793009,134.171171 454.793009,133.702703 454.793009,133.108108 C454.793009,132.513514 454.793009,132.054054 454.793009,131.72973 L451.673403,146 L448.317859,146 L445.215729,131.72973 C445.215729,132.054054 445.215729,132.513514 445.215729,133.108108 C445.215729,133.702703 445.215729,134.171171 445.215729,134.495495 L445.215729,146 L442,146 L442,129 L447.015838,129 L450.021846,142.369369 L453.04533,129 Z" id="Shape" fill="#112E51"></path>
            </g>
        </g>
    </g>
</svg>